<svg xmlns="http://www.w3.org/2000/svg" width="1220" height="1258" viewBox="0 0 1220 1258">
    <g fill="none" fill-rule="evenodd">
        <path fill="#F98D43" d="M0 1257.463L1219.488 573.95 352.888 0z"/>
        <g fill="#2E393D">
            <path d="M535.935 606.658c-5.473 0-9.91-4.432-9.91-9.903v-9.638c0-5.469 4.437-9.902 9.91-9.902 5.472 0 9.909 4.433 9.909 9.902v9.638c0 5.47-4.437 9.903-9.91 9.903M592.833 606.658c-5.473 0-9.91-4.432-9.91-9.903v-9.638c0-5.469 4.437-9.902 9.91-9.902s9.91 4.433 9.91 9.902v9.638c0 5.47-4.437 9.903-9.91 9.903"/>
        </g>
    </g>
</svg>
