<svg xmlns="http://www.w3.org/2000/svg" width="806.616" height="806.616" viewBox="0 0 806.616 806.616"><defs><style>.a{opacity:0.09;}.b{stroke:#000;stroke-miterlimit:10;stroke-width:40px;}</style></defs><g class="a" transform="translate(1044.308 -1447.692)"><path class="b" d="M-592.033,1700.27c-103.014-33.465-196.839-85.561-271.331-150.657a7,7,0,0,1-2.386-5.623,7,7,0,0,1,2.942-5.353,386.617,386.617,0,0,1,160.94-65.937,378.916,378.916,0,0,1,179.232,13.953A378.919,378.919,0,0,1-369.425,1580.7a386.529,386.529,0,0,1,91.459,147.932,7,7,0,0,1-.766,6.06,6.991,6.991,0,0,1-5.234,3.148C-382.487,1746.728-489.016,1733.737-592.033,1700.27Zm-255.3-155.32c71.955,61.124,161.523,110.14,259.627,142.011s199.381,44.853,293.516,37.687c-39.179-107.592-123.566-189.21-232.767-224.685S-752.4,1480.927-847.336,1544.95Z"/><path class="b" d="M-759.364,2215.347A378.934,378.934,0,0,1-912.575,2121.3a386.561,386.561,0,0,1-91.461-147.931,7,7,0,0,1,.765-6.06,7,7,0,0,1,5.235-3.149c98.523-8.89,205.052,4.1,308.069,37.568s196.84,85.563,271.329,150.658a7,7,0,0,1,2.385,5.625,7,7,0,0,1-2.942,5.353A386.569,386.569,0,0,1-580.133,2229.3,378.936,378.936,0,0,1-759.364,2215.347Zm-228.445-237.995c39.181,107.592,123.568,189.21,232.769,224.685s225.444,19.036,320.374-44.988c-71.952-61.122-161.517-110.138-259.625-142.01S-893.672,1970.186-987.809,1977.352Z"/><path class="b" d="M-759.364,2215.347c-49.8-16.179-83.72-69.788-95.505-150.951-11.532-79.428-.611-176.341,30.752-272.884s79.485-181.372,135.495-238.858c57.235-58.74,116.184-82.18,165.986-66s83.72,69.788,95.5,150.951c11.534,79.429.611,176.341-30.752,272.884s-79.484,181.37-135.495,238.858C-650.613,2208.086-709.56,2231.526-759.364,2215.347Zm232.4-715.384c-44.467-14.446-98.319,7.736-151.64,62.458-54.542,55.978-101.494,138.872-132.207,233.414s-41.444,189.2-30.214,266.549c10.98,75.611,41.514,125.207,85.981,139.653s98.32-7.735,151.64-62.458c54.541-55.977,101.494-138.872,132.207-233.414s41.442-189.2,30.214-266.549C-451.958,1564.005-482.493,1514.409-526.96,1499.963Z"/><path class="b" d="M-759.364,2215.347a7,7,0,0,1-4.493-8.817l232.4-715.384a7,7,0,0,1,8.817-4.493,7,7,0,0,1,4.493,8.817l-232.4,715.384A7,7,0,0,1-759.364,2215.347Z"/><path class="b" d="M-285.47,1973.857l-715.384-232.4a7,7,0,0,1-4.493-8.817,7,7,0,0,1,8.817-4.493l715.384,232.4a7,7,0,0,1,4.493,8.817A7,7,0,0,1-285.47,1973.857Z"/><path class="b" d="M-759.364,2215.347a380.583,380.583,0,0,1-222.963-190.411,380.589,380.589,0,0,1-23.02-292.3,380.58,380.58,0,0,1,190.411-222.963,380.589,380.589,0,0,1,292.3-23.02,380.58,380.58,0,0,1,222.963,190.411,380.589,380.589,0,0,1,23.02,292.3,380.579,380.579,0,0,1-190.411,222.963A380.589,380.589,0,0,1-759.364,2215.347Zm232.4-715.384c-193.563-62.882-402.2,43.434-465.077,237s43.434,402.2,237,465.077,402.195-43.434,465.077-237S-333.4,1562.845-526.96,1499.963Z"/></g></svg>