<svg xmlns="http://www.w3.org/2000/svg" width="806.615" height="894.597" viewBox="0 0 806.615 894.597"><defs><style>.a{opacity:0.09;}.b{stroke:#000;stroke-miterlimit:10;stroke-width:40px;}</style></defs><g class="a" transform="translate(20.025 20.029)"><g transform="translate(158.524 0.031)"><path class="b" d="M665.967,312.27C562.953,278.8,469.128,226.709,394.636,161.613a6.994,6.994,0,0,1,.556-10.976A386.615,386.615,0,0,1,556.132,84.7a383.77,383.77,0,0,1,332.443,108A386.528,386.528,0,0,1,980.034,340.63a7,7,0,0,1-6,9.208C875.513,358.728,768.984,345.737,665.967,312.27Zm-255.3-155.32c71.955,61.124,161.523,110.14,259.627,142.011s199.381,44.853,293.516,37.687C924.628,229.056,840.241,147.438,731.04,111.963S505.6,92.927,410.664,156.95Z" transform="translate(-392.241 -79.749)"/></g><g transform="translate(19.878 581.698)"><path class="b" d="M498.636,827.347A378.934,378.934,0,0,1,345.425,733.3a386.561,386.561,0,0,1-91.461-147.931,7,7,0,0,1,6-9.209c98.523-8.89,205.052,4.1,308.069,37.568s196.84,85.563,271.329,150.658a7,7,0,0,1-.557,10.978A386.571,386.571,0,0,1,677.867,841.3,378.937,378.937,0,0,1,498.636,827.347ZM270.191,589.352c39.181,107.592,123.568,189.21,232.769,224.685S728.4,833.073,823.334,769.049c-71.952-61.122-161.517-110.138-259.625-142.01S364.328,582.186,270.191,589.352Z" transform="translate(-253.595 -573.441)"/></g><g transform="translate(164.936 13.943)"><path class="b" d="M498.636,914.727c-49.8-18.106-83.72-78.1-95.5-168.929-11.532-88.888-.611-197.343,30.752-305.384s79.485-202.973,135.495-267.305c57.235-65.736,116.184-91.967,165.986-73.862s83.72,78.1,95.505,168.929c11.534,88.889.611,197.343-30.752,305.384S720.633,776.531,664.622,840.865C607.387,906.6,548.44,932.833,498.636,914.727Zm232.4-800.584c-44.467-16.166-98.319,8.657-151.64,69.9-54.542,62.645-101.494,155.411-132.207,261.213S405.749,656.99,416.979,743.547c10.98,84.616,41.514,140.119,85.981,156.285s98.32-8.656,151.64-69.9c54.541-62.644,101.494-155.411,132.207-261.213s41.442-211.738,30.214-298.294C806.042,185.812,775.507,130.309,731.04,114.143Z" transform="translate(-398.654 -93.66)"/></g><g transform="translate(260.081 18.591)"><path class="b" d="M498.636,915.28c-3.675-1.338-5.687-5.762-4.493-9.88l232.4-801.67c1.194-4.118,5.142-6.373,8.817-5.035s5.687,5.762,4.493,9.88l-232.4,801.67C506.259,914.363,502.311,916.618,498.636,915.28Z" transform="translate(-493.799 -98.309)"/></g><g transform="translate(18.591 304.068)"><path class="b" d="M972.53,585.857l-715.384-232.4a7,7,0,1,1,4.324-13.31l715.384,232.4a7,7,0,0,1-4.324,13.31Z" transform="translate(-252.309 -339.799)"/></g><path class="b" d="M498.636,913.148c-97.32-35.245-176.5-110.628-222.963-212.263s-54.636-217.356-23.02-325.846,99.239-196.76,190.411-248.551,194.979-60.906,292.3-25.662,176.5,110.628,222.963,212.263,54.636,217.356,23.02,325.846S882.108,835.7,790.936,887.487,595.957,948.393,498.636,913.148Zm232.4-797.485c-193.563-70.1-402.195,48.419-465.077,264.2s43.434,448.353,237,518.451,402.2-48.419,465.077-264.2S924.6,185.762,731.04,115.664Z" transform="translate(-233.718 -79.718)"/></g></svg>