<?xml version="1.0" encoding="utf-8"?>
<!-- Generator: Adobe Illustrator 23.0.3, SVG Export Plug-In . SVG Version: 6.00 Build 0)  -->
<svg version="1.1" id="圖層_1" xmlns="http://www.w3.org/2000/svg" xmlns:xlink="http://www.w3.org/1999/xlink" x="0px" y="0px"
	 viewBox="0 0 90.2 90.2" style="enable-background:new 0 0 90.2 90.2;" xml:space="preserve">
<style type="text/css">
	.st0{fill:#FFFFFF;}
	.st1{fill:none;stroke:#FFFFFF;stroke-width:7;stroke-miterlimit:10;}
</style>
<g transform="translate(44.279 -59.342)">
	<path class="st0" d="M7.6,78.9c1.4,0,2.7,0.1,4.1,0.1c0.9,0,2.6,0.3,2.6,0.3l-0.1,8.2h-0.7c-0.9,0-1.8,0-2.7,0c-0.7,0-1.4,0-2,0
		c-2.2,0.1-3.8,0.9-3.9,3.6c-0.1,2-0.1,6.3-0.1,6.5c0.1,0,2.3,0,4.4,0c1.1,0,2.1,0,2.9,0h1.8c-0.4,3.2-0.8,6.2-1.3,9.3H4.8L4.6,130
		H-5l0.2-23.2h-7.8l0.1-9.2h7.9l0-0.7c0-1.9,0-3.7,0.1-5.6c0-1.2,0.1-2.4,0.3-3.5c0.4-2.8,1.9-5.2,4.2-6.9c2-1.4,4.4-2.2,6.9-2.1
		C7.1,78.9,7.3,78.9,7.6,78.9z"/>
</g>
<circle class="st1" cx="45.1" cy="45.1" r="41.6"/>
</svg>
