<svg xmlns="http://www.w3.org/2000/svg" width="86.038" height="86" viewBox="0 0 86.038 86"><defs><style>.a{fill:#fff;}</style></defs><g transform="translate(-200.537 -59.628)"><g transform="translate(261.501 74.586)"><path class="a" d="M227.655,65.016h.061a5.119,5.119,0,0,1,5.108,5.18,5.214,5.214,0,0,1-5.219,5.147,5.164,5.164,0,0,1,.05-10.327Z" transform="translate(-222.497 -65.016)"/></g><g transform="translate(200.537 59.628)"><path class="a" d="M286.048,81.218c.639,6.768,1.052,38.755-.938,46.251-2.665,9.808-9.067,15.61-18.992,17.2-3.709.6-13.725.958-23.728.958-10.238,0-20.466-.378-23.9-1.269-9.755-2.521-15.577-8.878-17.126-18.756-1.155-7.254-1.277-40.968.816-48.289,2.732-9.533,9.1-15.13,18.745-16.718,4.372-.716,12.923-.969,21.557-.969,8.029,0,16.127.219,21,.486a23.7,23.7,0,0,1,15.7,6.424A22.637,22.637,0,0,1,286.048,81.218Zm-8.273,42.969c1.233-7.565,1.235-35.163.53-42.245-.772-7.565-5.4-12.537-12.881-13.711-3.706-.564-12.629-.813-21.507-.813-8.564,0-17.09.233-20.841.639-7.5.863-12.546,5.494-13.742,12.954-1.235,7.909-1.219,37.478-.3,43.419.955,6.183,4.447,10.43,10.616,12.157,3.337.936,13.334,1.271,23.134,1.271,9.023,0,17.881-.283,21.213-.65,7.57-.827,12.579-5.491,13.775-13.02" transform="translate(-200.537 -59.628)"/></g><g transform="translate(221.499 80.596)"><path class="a" d="M230.328,67.181A21.859,21.859,0,0,1,252.2,89.252a22.265,22.265,0,0,1-22.24,22.037,21.838,21.838,0,0,1-21.871-22.07A22.222,22.222,0,0,1,230.328,67.181Zm-.319,36.3a14.406,14.406,0,0,0,14.383-14.128,14.121,14.121,0,0,0-14.02-14.406h-.128a14.4,14.4,0,0,0-14.383,14.128,14.139,14.139,0,0,0,14.017,14.4l.13,0" transform="translate(-208.088 -67.181)"/></g></g></svg>