<svg xmlns="http://www.w3.org/2000/svg" width="61.471" height="90.266" viewBox="0 0 61.471 90.266"><defs><style>.a{fill:#fff;}</style></defs><g transform="translate(-18 -3.01)"><g transform="translate(18 3.01)"><path class="a" d="M48.735,955.372a30.716,30.716,0,0,0-18.249,55.438v31.966a2.881,2.881,0,0,0,4.412,2.431l13.837-8.644,13.837,8.644a2.881,2.881,0,0,0,4.412-2.431V1010.81a30.716,30.716,0,0,0-18.249-55.438Zm0,5.763a24.972,24.972,0,1,1-24.972,24.972A24.929,24.929,0,0,1,48.735,961.135Zm-.06,6.663a2.914,2.914,0,0,0-2.491,1.621l-4.112,8.464-9.094,1.351a2.934,2.934,0,0,0-2.325,1.962,3.013,3.013,0,0,0,.7,2.991l6.633,6.573L36.429,1000a3.023,3.023,0,0,0,2.761,3.422,2.831,2.831,0,0,0,1.381-.33l8.164-4.412L56.9,1003.1a2.876,2.876,0,0,0,3.02-.226A3,3,0,0,0,61.041,1000l-1.561-9.245,6.633-6.573a3.013,3.013,0,0,0,.712-2.979,2.935,2.935,0,0,0-2.3-1.974L55.4,977.884l-4.082-8.464a2.916,2.916,0,0,0-2.641-1.621Zm.06,9.515,2.191,4.5a2.91,2.91,0,0,0,2.131,1.591l4.892.75-3.542,3.512a2.994,2.994,0,0,0-.81,2.551l.84,4.982-4.382-2.371a2.858,2.858,0,0,0-2.641,0L43.033,995.2l.81-4.982a2.994,2.994,0,0,0-.78-2.551l-3.542-3.512,4.892-.75a2.91,2.91,0,0,0,2.131-1.591Zm-12.486,36.858a30.383,30.383,0,0,0,3.842,1.441v19.54l-3.842,2.4Zm24.972,0v23.382l-3.842-2.4v-19.54A30.383,30.383,0,0,0,61.222,1014.172Zm-15.368,2.551c.944.087,1.915.12,2.881.12s1.937-.033,2.881-.12v14.827l-1.351-.84a2.947,2.947,0,0,0-3.062,0l-1.351.84Z" transform="translate(-18 -955.372)"/></g></g></svg>