<svg xmlns="http://www.w3.org/2000/svg" width="2150" height="1486" viewBox="0 0 2150 1486">
    <g fill="none" fill-rule="evenodd">
        <g fill="#FFF">
            <path d="M367.234 1135.097c4.105 8.129 5.31 17.191 3.476 26.21-.265 1.31.125 2.652 1.047 3.649a4.156 4.156 0 0 0 3.598 1.255l10.881-1.549 1.677 21.559-50.438 7.127-2.466.371c-16.765 1.74-33.099-7.15-40.677-22.16-10.085-20.005-1.931-44.463 18.177-54.526 20.086-10.044 44.639-1.952 54.725 18.064zm45.186 47.66l-16.284 2.302-1.678-21.565 29.923-4.254-11.96 23.518zm99.573-138.714l4.154 1.175-85.75 168.26-19.976-8.534 76.287-149.99c4.703-9.237 15.323-13.832 25.285-10.91zm70.04 92.818l-.215 4.322c-.448 10.29-8.248 18.82-18.544 20.284l-104.615 14.797 12.016-23.578 111.359-15.825zm-157.194 99.714c9.123 1.16 17.35 5.212 23.784 11.723 15.758 15.962 15.56 41.719-.462 57.424-16.026 15.703-41.893 15.498-57.663-.46-11.81-11.958-15.021-30.225-8.053-45.31l24.224-47.631 19.97 8.533-4.974 9.758a4.124 4.124 0 0 0 .035 3.802 4.19 4.19 0 0 0 3.139 2.16zm-116.05-126.917c-24.19 12.105-33.997 41.535-21.863 65.605a48.174 48.174 0 0 0 3.896 6.422c10.14 14.101 27.422 22.074 45.231 20.222l71.8-10.163-31.564 62.06-1.302 2.548c-7.41 16.035-5.387 34.855 4.748 48.951a48.277 48.277 0 0 0 4.856 5.748c18.975 19.202 50.1 19.449 69.383.552 19.279-18.894 19.523-49.9.556-69.094-6.393-6.469-14.25-10.923-22.97-13.068l22.52-44.194 110.362-15.608c14.245-2.027 25.038-13.843 25.656-28.072l.46-9.295a4.15 4.15 0 0 0-1.347-3.255 4.173 4.173 0 0 0-3.378-1.036l-110.578 15.715 50.558-99.21a4.108 4.108 0 0 0 .101-3.522 4.154 4.154 0 0 0-2.663-2.317l-8.957-2.533c-13.755-4.032-28.466 2.323-34.98 15.11l-50.363 99.03-49.308 7.014c.735-8.908-.984-17.921-5.006-25.88-12.142-24.082-41.674-33.818-65.849-21.73z"/>
            <path d="M432.059 1270.099a17.6 17.6 0 0 1 1.762 2.093c4.927 6.883 4.256 16.546-1.959 22.667-6.883 6.77-17.986 6.682-24.757-.197-6.766-6.893-6.68-17.991.199-24.76 6.88-6.773 17.984-6.684 24.755.197m-38.26 12.076c-.045 5.524 1.634 10.794 4.783 15.194a26.209 26.209 0 0 0 2.616 3.107c9.977 10.137 26.338 10.268 36.477.293 10.137-9.98 10.253-26.368.29-36.484-4.825-4.904-11.281-7.638-18.176-7.692-6.896-.054-13.395 2.574-18.3 7.399-4.904 4.829-7.636 11.284-7.69 18.183M322.961 1142.748c8.624-4.332 19.166-.835 23.499 7.789 4.333 8.626.841 19.17-7.784 23.503-8.628 4.334-19.168.849-23.502-7.789-4.33-8.628-.837-19.171 7.787-23.503m-15.193 27.225a26.227 26.227 0 0 0 2.084 3.455c7.262 10.14 21.057 13.79 32.541 8.02 12.712-6.386 17.859-21.923 11.472-34.633-6.38-12.724-21.917-17.862-34.625-11.474-12.708 6.38-17.855 21.918-11.472 34.632"/>
        </g>
        <path stroke="#FFF" stroke-dasharray="22.93000030517578,25.93000030517578" stroke-width="10.389" d="M519 1127.623L2176.588-16M-1196 2283.85L356.88 1239.54"/>
    </g>
</svg>
