<?xml version="1.0" encoding="utf-8"?>
<!-- Generator: Adobe Illustrator 23.0.3, SVG Export Plug-In . SVG Version: 6.00 Build 0)  -->
<svg version="1.1" id="圖層_1" xmlns="http://www.w3.org/2000/svg" xmlns:xlink="http://www.w3.org/1999/xlink" x="0px" y="0px"
	width="70" viewBox="0 0 70 259.5" xml:space="preserve">
<style type="text/css">
	.st0{fill:#F2F2F2;enable-background:new    ;}
</style>
<g>
	<path class="st0" d="M59.3,200.2c-7-6.7-15.1-10.1-24.3-10.1c-9.6,0-17.9,3.4-24.8,10.1C3.4,207,0,215.1,0.1,224.6
		c-0.1,9.7,3.3,18,10.2,24.8c6.9,6.8,15.1,10.2,24.8,10.1c9.1,0,17.2-3.4,24.3-10.2c7-6.8,10.6-15,10.6-24.8
		C69.9,215,66.3,206.9,59.3,200.2z"/>
	<polygon class="st0" points="63.4,175.6 69.8,0 -0.1,0.1 6.6,175.7 	"/>
</g>
</svg>
