<?xml version="1.0" encoding="utf-8"?>
<!-- Generator: Adobe Illustrator 23.0.3, SVG Export Plug-In . SVG Version: 6.00 Build 0)  -->
<svg version="1.1" id="圖層_1" xmlns="http://www.w3.org/2000/svg" xmlns:xlink="http://www.w3.org/1999/xlink" x="0px" y="0px"
	 viewBox="0 0 70 259.5" style="enable-background:new 0 0 70 259.5;" xml:space="preserve">
<style type="text/css">
	.st0{fill:#686868;}
</style>
<path class="st0" d="M69.4,218l0.6,6.5l-0.6,6.6l-1.8,6.3l-3,5.9l-4.4,5.6l-5.3,4.5l-6.1,3.3l-6.9,2.1l-6.7,0.6l-6.8-0.7l-6.9-2.3
	l-6.5-3.4l-5.3-4.6l-4.1-5.3l-2.9-5.7L0.6,231L0,224.5l0.8-7.4l2.4-7.1l3.4-5.9l4.5-5.1l5.2-4l5.5-3l6.7-1.8l5.8-0.5l-27.7-14L0.1,0
	L70,0l-6.6,175.6l-27.6,13.9l6.7,0.7l6.6,2.2l6.6,3.9l4.6,4.1l4.2,5.3l2.9,5.7L69.4,218z"/>
</svg>
