<?xml version="1.0" encoding="utf-8"?>
<!-- Generator: Adobe Illustrator 23.0.3, SVG Export Plug-In . SVG Version: 6.00 Build 0)  -->
<svg version="1.1" id="圖層_1" xmlns="http://www.w3.org/2000/svg" xmlns:xlink="http://www.w3.org/1999/xlink" x="0px" y="0px"
	 viewBox="0 0 713.6 261.9" style="enable-background:new 0 0 713.6 261.9;" xml:space="preserve">
<style type="text/css">
	.st0{fill:#636363;}
</style>
<path class="st0" d="M713.6,93.8l-6.2,35.3l-16.6,26l-29,19.5l-39.3,8.1l-44.3,0.1l0,75.7l-69.2,0l0.1-127.6h-32l-1.8,27.8l-6.4,26
	l-10.1,21.2l-13.4,18L431,237.2l-21.7,13l-23.7,8.1l-28.8,3.6l-25-1.3l-25.2-6.4L283.8,243l-18.4-14.5l-16.3-20.2l-12-24.8
	l-5.8-23.5l-2.2-29.2l1.9-27.2l1-4.2h-28.4l-5.1,29.3l-16.6,26l-29,19.5l-39.3,8.1l-44.3,0.1l0,75.7l-69.2,0L0.1,3.3l117.5,0.3
	l36.7,8.3l27.3,19l17.9,29.3l4.7,29.3h30.5l3.6-14.3L249,53.6l15.9-19.9l17.5-14.1l23.1-11.5L328.8,2l24.4-2l26.5,2.4l26.2,7.9
	l20.6,11.2L445,37.6l14.2,19.2l10.9,24.5l5.2,23l1.2,16.5H509L509,3.6l117.5,0.3l36.7,8.3l27.3,19l17.9,29.3L713.6,93.8z"/>
</svg>
