<?xml version="1.0" encoding="utf-8"?>
<!-- Generator: Adobe Illustrator 23.0.3, SVG Export Plug-In . SVG Version: 6.00 Build 0)  -->
<svg version="1.1" id="圖層_1" xmlns="http://www.w3.org/2000/svg" xmlns:xlink="http://www.w3.org/1999/xlink" x="0px" y="0px"
	width="713px" viewBox="0 0 713.6 261.9">
<style type="text/css">
	.st0{enable-background:new    ;}
	.st1{fill:#F2F2F2;}
</style>
<g class="st0">
	<path class="st1" d="M0.1,258.2L0.2,3.3l110,0.1c18.9,0,35.5,3.8,49.7,11.2c14.2,7.5,25.2,18,33.1,31.5
		c7.9,13.5,11.8,29.3,11.8,47.4c0,18.3-4.1,34.1-12.2,47.4c-8.1,13.4-19.4,23.6-34,30.8c-14.6,7.2-31.6,10.8-51,10.8l-38.3,0l0,75.7
		L0.1,258.2z M69.4,128.8l24.4,0c12.1,0,21.6-3.2,28.5-9.5c6.9-6.3,10.3-15,10.3-25.8c0-11-3.4-19.5-10.3-25.6
		c-6.9-6.1-16.4-9.2-28.5-9.2l-24.4,0L69.4,128.8z"/>
	<path class="st1" d="M477.1,131c0,28.4-5.5,52.3-16.6,71.7c-11,19.5-25.9,34.2-44.7,44.2s-39.7,15-62.7,15
		c-23.2,0-44.2-5.1-62.9-15.2c-18.7-10.1-33.6-24.9-44.5-44.3c-11-19.5-16.5-43.3-16.5-71.5c0-28.4,5.5-52.3,16.5-71.7
		c11-19.5,25.9-34.2,44.6-44.2C309,5,330,0,353.2,0c23.1,0,44,5,62.7,15c18.7,10,33.6,24.7,44.7,44.2
		C471.6,78.7,477.1,102.6,477.1,131z M405.9,131c0-22.9-4.5-40.4-13.5-52.5c-9-12.1-22.1-18.2-39.3-18.2c-17.2,0-30.3,6-39.3,18.2
		c-9,12.1-13.5,29.6-13.5,52.5c0,22.9,4.5,40.4,13.5,52.5c9,12.1,22.1,18.2,39.3,18.2c17.2,0,30.3-6,39.3-18.2
		C401.4,171.4,405.9,153.9,405.9,131z"/>
</g>
<g class="st0">
	<path class="st1" d="M508.9,258.5L509,3.6l110,0.1c18.9,0,35.5,3.8,49.7,11.2c14.2,7.5,25.2,18,33.1,31.5
		c7.9,13.5,11.8,29.3,11.8,47.4c0,18.3-4.1,34.1-12.2,47.4c-8.1,13.4-19.4,23.6-34,30.8c-14.6,7.2-31.6,10.8-51,10.8l-38.3,0l0,75.7
		L508.9,258.5z M578.2,129.1l24.4,0c12.1,0,21.6-3.2,28.5-9.5s10.3-15,10.3-25.8c0-11-3.4-19.5-10.3-25.6
		c-6.9-6.1-16.4-9.2-28.5-9.2l-24.4,0L578.2,129.1z"/>
</g>
</svg>
