<?xml version="1.0" encoding="utf-8"?>
<!-- Generator: Adobe Illustrator 23.0.3, SVG Export Plug-In . SVG Version: 6.00 Build 0)  -->
<svg version="1.1" id="圖層_1" xmlns="http://www.w3.org/2000/svg" xmlns:xlink="http://www.w3.org/1999/xlink" x="0px" y="0px"
	 viewBox="0 0 162.4 177.7" style="enable-background:new 0 0 162.4 177.7;" xml:space="preserve">
<style type="text/css">
	.st0{fill:#000;}
</style>
<g transform="translate(-2937.894 -2948.622)">
	<path class="st0" d="M3028,3104.1c3.3,7.5,12,10.9,19.5,7.6c7.5-3.3,10.9-12,7.6-19.5c-3.3-7.5-12-10.9-19.5-7.6
		c-3.6,1.6-6.4,4.5-7.8,8.1C3026.3,3096.4,3026.4,3100.5,3028,3104.1z M3045.2,3088.8c5.2,2,7.7,7.9,5.7,13c-2,5.2-7.9,7.7-13,5.7
		c-5.2-2-7.7-7.9-5.7-13S3040,3086.8,3045.2,3088.8L3045.2,3088.8z"/>
	<path class="st0" d="M3015.4,3056.2c-0.1,1.7-1.9,38.3-2,40l-0.1,1.6c-0.1,10.1,5.2,19.5,14,24.6c1.2,0.7,2.5,1.4,3.9,1.9
		c14.5,5.7,30.8-1.4,36.5-15.9c6.2-15.8-4.2-31.5-15.9-36.5c-6-2.6-11.7-2.1-15.1-1.5c2-39.8,4-79.6,6-119.3
		c-0.1-0.2-0.8-2.4-2.3-2.5c-0.1,0-0.3,0-0.5,0l-5.3,0.8c-8.2,1.1-14.4,7.9-14.8,16.1c-1.1,21.3-2.1,42.6-3.2,63.9
		C3016.7,3030.2,3015.5,3055.4,3015.4,3056.2z M3034.8,3075.8c5-1.5,10.4-1.3,15.2,0.6c12,4.7,17.9,18.3,13.2,30.3
		s-18.3,17.9-30.3,13.2c-9-3.5-14.9-12.3-14.8-22l1.5-30.7l12.5-0.2l-0.3,6.3c0,0.8,0.3,1.5,0.9,2
		C3033.3,3075.9,3034.1,3076,3034.8,3075.8L3034.8,3075.8z M3035.3,2954.1l2.5-0.4l-5.5,108.6l-12.5,0.2l4.8-96.7
		C3024.9,2959.8,3029.4,2954.9,3035.3,2954.1L3035.3,2954.1z"/>
</g>
<g transform="translate(-2937.894 -2948.622)">
	<path class="st0" d="M2977.5,3063.3c2.5-3,3.7-6.9,3.3-10.8c-0.8-8.1-8-14.1-16.2-13.3c-8.1,0.8-14.1,8-13.3,16.2
		c0.8,8.1,8,14.1,16.2,13.3C2971.4,3068.3,2975,3066.4,2977.5,3063.3z M2972.4,3046.2c4.3,3.5,4.9,9.8,1.4,14.1s-9.8,4.9-14.1,1.4
		s-4.9-9.8-1.4-14.1C2961.8,3043.3,2968.1,3042.7,2972.4,3046.2L2972.4,3046.2z"/>
	<path class="st0" d="M3038.1,3041.9c18.1-11.3,36.1-22.7,54.2-34c7-4.4,9.9-13.1,6.8-20.8l-1.9-5c-0.1-0.2-0.1-0.3-0.2-0.4
		c-0.8-1.2-3-0.8-3.3-0.7c-33.7,21.2-67.5,42.4-101.2,63.6c-1.1-3.2-3.6-8.5-8.7-12.4c-10.1-7.8-28.9-9.2-39.6,4
		c-9.8,12-8.1,29.8,4,39.6c1.1,0.9,2.3,1.7,3.6,2.5c8.7,5.1,19.5,5.2,28.3,0.1l1.4-0.9c1.5-0.9,32.5-20.4,34-21.3
		C3016.1,3055.8,3037.5,3042.4,3038.1,3041.9z M2988.8,3048.8c0.2,0.8,0.7,1.4,1.4,1.7s1.5,0.2,2.2-0.2l5.3-3.4l5.9,11l-26.1,16.3
		c-8.4,4.8-18.9,3.9-26.4-2.2c-10-8.2-11.5-22.9-3.3-32.9s22.9-11.5,32.9-3.3C2984.9,3039.2,2987.7,3043.7,2988.8,3048.8
		L2988.8,3048.8z M3094.7,2988.9c2.2,5.5,0.1,11.9-4.9,15l-82.1,51.5l-5.9-11l92-57.8L3094.7,2988.9L3094.7,2988.9z"/>
</g>
<path class="st0" d="M91.7,86.7c-0.4-1.3-1.6-2-2.9-1.7c-0.6,0.2-1.1,0.6-1.4,1.1s-0.4,1.2-0.3,1.8c0.3,1.3,1.6,2,2.9,1.7
	c0.1-0.1,0.3-0.1,0.4-0.2s0.3-0.2,0.4-0.3c0.1-0.1,0.2-0.2,0.3-0.3c0.1-0.1,0.2-0.3,0.3-0.4C91.8,87.9,91.9,87.3,91.7,86.7z"/>
</svg>
